<svg id="visual" viewBox="0 0 960 300" width="960" height="300" xmlns="http://www.w3.org/2000/svg" xmlns:xlink="http://www.w3.org/1999/xlink" version="1.1"><rect x="0" y="0" width="960" height="300" fill="#ef2c1b"></rect><path d="M0 90L40 85.2C80 80.3 160 70.7 240 77.5C320 84.3 400 107.7 480 119.2C560 130.7 640 130.3 720 119C800 107.7 880 85.3 920 74.2L960 63L960 0L920 0C880 0 800 0 720 0C640 0 560 0 480 0C400 0 320 0 240 0C160 0 80 0 40 0L0 0Z" fill="#0e0e0e" stroke-linecap="round" stroke-linejoin="miter"></path></svg>